HIERARCHY
ROOT newVegas:Hips
{
	OFFSET 0.000000 96.479958 0.000000
	CHANNELS 6 Xposition Yposition Zposition Xrotation Yrotation Zrotation
	JOINT newVegas:Pelvis
	{
		OFFSET 0.000000 0.000000 0.000000
		CHANNELS 3 Xrotation Yrotation Zrotation
		JOINT newVegas:LeftUpLeg
		{
			OFFSET 18.735201 -5.666702 -4.541200
			CHANNELS 3 Xrotation Yrotation Zrotation
			JOINT newVegas:LeftLeg
			{
				OFFSET -0.021200 -31.938179 0.493100
				CHANNELS 3 Xrotation Yrotation Zrotation
				JOINT newVegas:LeftFoot
				{
					OFFSET 0.021200 -31.938179 -4.336299
					CHANNELS 3 Xrotation Yrotation Zrotation
					JOINT newVegas:LeftToeBase
					{
						OFFSET 0.943001 -26.722000 15.023500
						CHANNELS 3 Xrotation Yrotation Zrotation
						End Site
						{
							OFFSET 0.000000 30.670183 0.000000
						}
					}
				}
				JOINT newVegas:Left_PantLeg
				{
					OFFSET 0.663870 -9.044666 -1.108900
					CHANNELS 3 Xrotation Yrotation Zrotation
					End Site
					{
						OFFSET 1.415995 20.635357 0.000000
					}
				}
			}
		}
		JOINT newVegas:RightUpLeg
		{
			OFFSET -18.735201 -5.666702 -4.541200
			CHANNELS 3 Xrotation Yrotation Zrotation
			JOINT newVegas:RightLeg
			{
				OFFSET 0.018946 -31.938133 0.493100
				CHANNELS 3 Xrotation Yrotation Zrotation
				JOINT newVegas:RightFoot
				{
					OFFSET -0.018946 -31.938126 -4.336299
					CHANNELS 3 Xrotation Yrotation Zrotation
					JOINT newVegas:RightToeBase
					{
						OFFSET -0.943001 -26.722004 15.023500
						CHANNELS 3 Xrotation Yrotation Zrotation
						End Site
						{
							OFFSET 0.000000 30.670187 0.000000
						}
					}
				}
				JOINT newVegas:Right_PantLeg
				{
					OFFSET -0.661674 -9.044716 -1.108900
					CHANNELS 3 Xrotation Yrotation Zrotation
					End Site
					{
						OFFSET -1.415958 20.635269 0.000000
					}
				}
			}
		}
	}
	JOINT newVegas:Spine
	{
		OFFSET 0.000000 10.199997 -0.299500
		CHANNELS 3 Xrotation Yrotation Zrotation
		JOINT newVegas:Spine1
		{
			OFFSET 0.000000 11.900002 -1.516600
			CHANNELS 3 Xrotation Yrotation Zrotation
			JOINT newVegas:Spine2
			{
				OFFSET 0.000000 13.600006 -2.842500
				CHANNELS 3 Xrotation Yrotation Zrotation
				JOINT newVegas:Neck
				{
					OFFSET 0.000000 9.624100 -2.890100
					CHANNELS 3 Xrotation Yrotation Zrotation
					JOINT newVegas:Head
					{
						OFFSET 0.000000 14.068802 -1.351900
						CHANNELS 3 Xrotation Yrotation Zrotation
						JOINT newVegas:Hair_Back
						{
							OFFSET 0.000000 3.231903 -17.524799
							CHANNELS 3 Xrotation Yrotation Zrotation
							End Site
							{
								OFFSET 0.000000 19.849884 0.000000
							}
						}
						JOINT newVegas:Hair_Front
						{
							OFFSET 0.000000 31.260406 4.573800
							CHANNELS 3 Xrotation Yrotation Zrotation
							JOINT newVegas:Hair_Front1
							{
								OFFSET 0.000000 2.284103 11.993300
								CHANNELS 3 Xrotation Yrotation Zrotation
								JOINT newVegas:Hair_Front2
								{
									OFFSET 0.000000 2.284103 11.993300
									CHANNELS 3 Xrotation Yrotation Zrotation
									End Site
									{
										OFFSET 0.000000 12.208862 0.000000
									}
								}
							}
						}
						JOINT newVegas:Jowel
						{
							OFFSET 0.000000 -7.458206 6.864100
							CHANNELS 3 Xrotation Yrotation Zrotation
							End Site
							{
								OFFSET 0.000000 19.849884 0.000000
							}
						}
					}
				}
				JOINT newVegas:LeftShoulder
				{
					OFFSET 15.263000 10.923401 -0.547700
					CHANNELS 3 Xrotation Yrotation Zrotation
					JOINT newVegas:LeftArm
					{
						OFFSET 25.438599 -2.830597 -13.032500
						CHANNELS 3 Xrotation Yrotation Zrotation
						JOINT newVegas:LeftForeArm
						{
							OFFSET 29.960503 0.000000 0.000000
							CHANNELS 3 Xrotation Yrotation Zrotation
							JOINT newVegas:LeftHand
							{
								OFFSET 27.849251 0.000000 0.000000
								CHANNELS 3 Xrotation Yrotation Zrotation
								JOINT newVegas:LeftHandThumb1
								{
									OFFSET 4.487587 -3.305161 6.305391
									CHANNELS 3 Xrotation Yrotation Zrotation
									JOINT newVegas:LeftHandThumb2
									{
										OFFSET 5.480453 -3.164139 3.164143
										CHANNELS 3 Xrotation Yrotation Zrotation
										JOINT newVegas:LeftHandThumb3
										{
											OFFSET 5.159721 -2.978973 2.978967
											CHANNELS 3 Xrotation Yrotation Zrotation
											End Site
											{
												OFFSET 2.494507 5.926697 1.738678
											}
										}
									}
								}
								JOINT newVegas:LeftHandIndex1
								{
									OFFSET 18.578728 -0.527832 5.208049
									CHANNELS 3 Xrotation Yrotation Zrotation
									JOINT newVegas:LeftHandIndex2
									{
										OFFSET 3.192009 0.000000 0.000000
										CHANNELS 3 Xrotation Yrotation Zrotation
										JOINT newVegas:LeftHandIndex3
										{
											OFFSET 3.835129 0.000000 0.000000
											CHANNELS 3 Xrotation Yrotation Zrotation
											End Site
											{
												OFFSET -0.034599 3.816971 0.371180
											}
										}
									}
								}
								JOINT newVegas:LeftHandMiddle1
								{
									OFFSET 18.476105 0.000000 0.000000
									CHANNELS 3 Xrotation Yrotation Zrotation
									JOINT newVegas:LeftHandMiddle2
									{
										OFFSET 3.324875 0.000000 0.000000
										CHANNELS 3 Xrotation Yrotation Zrotation
										JOINT newVegas:LeftHandMiddle3
										{
											OFFSET 4.596550 0.000000 0.000000
											CHANNELS 3 Xrotation Yrotation Zrotation
											End Site
											{
												OFFSET 0.057701 4.578827 0.399218
											}
										}
									}
								}
								JOINT newVegas:LeftHandRing1
								{
									OFFSET 17.732719 0.121887 -4.201567
									CHANNELS 3 Xrotation Yrotation Zrotation
									JOINT newVegas:LeftHandRing2
									{
										OFFSET 2.733170 0.000000 0.000000
										CHANNELS 3 Xrotation Yrotation Zrotation
										JOINT newVegas:LeftHandRing3
										{
											OFFSET 3.178268 0.000000 0.000000
											CHANNELS 3 Xrotation Yrotation Zrotation
											End Site
											{
												OFFSET 0.119102 3.170624 0.185394
											}
										}
									}
								}
								JOINT newVegas:LeftHandPinky1
								{
									OFFSET 15.989624 -0.606689 -7.535461
									CHANNELS 3 Xrotation Yrotation Zrotation
									JOINT newVegas:LeftHandPinky2
									{
										OFFSET 2.538986 0.000000 0.000000
										CHANNELS 3 Xrotation Yrotation Zrotation
										JOINT newVegas:LeftHandPinky3
										{
											OFFSET 2.593102 0.000000 0.000000
											CHANNELS 3 Xrotation Yrotation Zrotation
											End Site
											{
												OFFSET -0.150902 2.584198 0.152708
											}
										}
									}
								}
							}
							JOINT newVegas:Left_Sleeve
							{
								OFFSET 0.267448 -0.649796 0.577675
								CHANNELS 3 Xrotation Yrotation Zrotation
								End Site
								{
									OFFSET 0.000000 15.991241 0.000000
								}
							}
							JOINT newVegas:Left_CapeC
							{
								OFFSET 15.715958 -8.608795 -6.935905
								CHANNELS 3 Xrotation Yrotation Zrotation
								JOINT newVegas:Left_CapeC1
								{
									OFFSET 0.000000 -8.688499 0.000000
									CHANNELS 3 Xrotation Yrotation Zrotation
									End Site
									{
										OFFSET 0.000000 8.688499 0.000000
									}
								}
							}
						}
						JOINT newVegas:Left_CapeB
						{
							OFFSET 26.118385 -8.608795 -7.079235
							CHANNELS 3 Xrotation Yrotation Zrotation
							JOINT newVegas:Left_CapeB1
							{
								OFFSET 0.000000 -8.688499 0.000000
								CHANNELS 3 Xrotation Yrotation Zrotation
								End Site
								{
									OFFSET 0.000000 8.688499 0.000000
								}
							}
						}
						JOINT newVegas:Left_CapeA
						{
							OFFSET 5.115639 -8.608795 -10.395809
							CHANNELS 3 Xrotation Yrotation Zrotation
							JOINT newVegas:Left_CapeA1
							{
								OFFSET 0.000000 -8.688499 0.000000
								CHANNELS 3 Xrotation Yrotation Zrotation
								End Site
								{
									OFFSET 0.000000 8.688499 0.000000
								}
							}
						}
					}
				}
				JOINT newVegas:RightShoulder
				{
					OFFSET -15.263000 10.923401 -0.547700
					CHANNELS 3 Xrotation Yrotation Zrotation
					JOINT newVegas:RightArm
					{
						OFFSET -25.438599 -2.830597 -13.032500
						CHANNELS 3 Xrotation Yrotation Zrotation
						JOINT newVegas:RightForeArm
						{
							OFFSET -29.960503 0.000000 0.000000
							CHANNELS 3 Xrotation Yrotation Zrotation
							JOINT newVegas:RightHand
							{
								OFFSET -27.849251 0.000000 0.000000
								CHANNELS 3 Xrotation Yrotation Zrotation
								JOINT newVegas:RightHandThumb1
								{
									OFFSET -4.487587 -3.305161 6.305391
									CHANNELS 3 Xrotation Yrotation Zrotation
									JOINT newVegas:RightHandThumb2
									{
										OFFSET -5.480453 -3.164139 3.164143
										CHANNELS 3 Xrotation Yrotation Zrotation
										JOINT newVegas:RightHandThumb3
										{
											OFFSET -5.159721 -2.978973 2.978967
											CHANNELS 3 Xrotation Yrotation Zrotation
											End Site
											{
												OFFSET -2.494507 5.926697 1.738678
											}
										}
									}
								}
								JOINT newVegas:RightHandIndex1
								{
									OFFSET -18.578728 -0.527832 5.208049
									CHANNELS 3 Xrotation Yrotation Zrotation
									JOINT newVegas:RightHandIndex2
									{
										OFFSET -3.192009 0.000000 0.000000
										CHANNELS 3 Xrotation Yrotation Zrotation
										JOINT newVegas:RightHandIndex3
										{
											OFFSET -3.835129 0.000000 0.000000
											CHANNELS 3 Xrotation Yrotation Zrotation
											End Site
											{
												OFFSET 0.034599 3.816971 0.371180
											}
										}
									}
								}
								JOINT newVegas:RightHandMiddle1
								{
									OFFSET -18.476105 0.000000 0.000000
									CHANNELS 3 Xrotation Yrotation Zrotation
									JOINT newVegas:RightHandMiddle2
									{
										OFFSET -3.324875 0.000000 0.000000
										CHANNELS 3 Xrotation Yrotation Zrotation
										JOINT newVegas:RightHandMiddle3
										{
											OFFSET -4.596550 0.000000 0.000000
											CHANNELS 3 Xrotation Yrotation Zrotation
											End Site
											{
												OFFSET -0.057701 4.578827 0.399218
											}
										}
									}
								}
								JOINT newVegas:RightHandRing1
								{
									OFFSET -17.732719 0.121887 -4.201567
									CHANNELS 3 Xrotation Yrotation Zrotation
									JOINT newVegas:RightHandRing2
									{
										OFFSET -2.733170 0.000000 0.000000
										CHANNELS 3 Xrotation Yrotation Zrotation
										JOINT newVegas:RightHandRing3
										{
											OFFSET -3.178268 0.000000 0.000000
											CHANNELS 3 Xrotation Yrotation Zrotation
											End Site
											{
												OFFSET -0.119102 3.170624 0.185394
											}
										}
									}
								}
								JOINT newVegas:RightHandPinky1
								{
									OFFSET -15.989624 -0.606689 -7.535461
									CHANNELS 3 Xrotation Yrotation Zrotation
									JOINT newVegas:RightHandPinky2
									{
										OFFSET -2.538986 0.000000 0.000000
										CHANNELS 3 Xrotation Yrotation Zrotation
										JOINT newVegas:RightHandPinky3
										{
											OFFSET -2.593102 0.000000 0.000000
											CHANNELS 3 Xrotation Yrotation Zrotation
											End Site
											{
												OFFSET 0.150902 2.584198 0.152708
											}
										}
									}
								}
							}
							JOINT newVegas:Right_CapeC
							{
								OFFSET -15.715958 -8.608795 -6.935905
								CHANNELS 3 Xrotation Yrotation Zrotation
								JOINT newVegas:Right_CapeC1
								{
									OFFSET 0.000000 -8.688499 0.000000
									CHANNELS 3 Xrotation Yrotation Zrotation
									End Site
									{
										OFFSET 0.000000 8.688499 0.000000
									}
								}
							}
							JOINT newVegas:Right_Sleeve
							{
								OFFSET -0.267448 -0.649994 0.577675
								CHANNELS 3 Xrotation Yrotation Zrotation
								End Site
								{
									OFFSET 0.000000 15.991302 0.000000
								}
							}
						}
						JOINT newVegas:Right_CapeA
						{
							OFFSET -5.115540 -8.608795 -10.395824
							CHANNELS 3 Xrotation Yrotation Zrotation
							JOINT newVegas:Right_CapeA1
							{
								OFFSET 0.000000 -8.688499 0.000000
								CHANNELS 3 Xrotation Yrotation Zrotation
								End Site
								{
									OFFSET 0.000000 8.688499 0.000000
								}
							}
						}
						JOINT newVegas:Right_CapeB
						{
							OFFSET -26.118187 -8.608795 -7.079266
							CHANNELS 3 Xrotation Yrotation Zrotation
							JOINT newVegas:Right_CapeB1
							{
								OFFSET 0.000000 -8.688499 0.000000
								CHANNELS 3 Xrotation Yrotation Zrotation
								End Site
								{
									OFFSET 0.000000 8.688499 0.000000
								}
							}
						}
					}
				}
				JOINT newVegas:Left_Collar
				{
					OFFSET 18.625099 8.655502 8.828100
					CHANNELS 3 Xrotation Yrotation Zrotation
					JOINT newVegas:Left_Collar1
					{
						OFFSET 14.783401 10.540405 -1.259500
						CHANNELS 3 Xrotation Yrotation Zrotation
						End Site
						{
							OFFSET 0.000000 18.199875 0.000000
						}
					}
				}
				JOINT newVegas:Collar_Back
				{
					OFFSET 0.000000 15.630707 -20.132601
					CHANNELS 3 Xrotation Yrotation Zrotation
					End Site
					{
						OFFSET 0.000000 22.523010 0.000000
					}
				}
				JOINT newVegas:Left_Peck
				{
					OFFSET 17.239599 -5.132599 25.482599
					CHANNELS 3 Xrotation Yrotation Zrotation
					End Site
					{
						OFFSET 0.000000 22.523010 0.000000
					}
				}
				JOINT newVegas:Right_Peck
				{
					OFFSET -17.239599 -5.132202 25.482599
					CHANNELS 3 Xrotation Yrotation Zrotation
					End Site
					{
						OFFSET 0.000000 22.523010 0.000000
					}
				}
				JOINT newVegas:Right_Collar
				{
					OFFSET -18.625099 8.655792 8.828100
					CHANNELS 3 Xrotation Yrotation Zrotation
					JOINT newVegas:Right_Collar1
					{
						OFFSET -14.783401 10.539993 -1.259500
						CHANNELS 3 Xrotation Yrotation Zrotation
						End Site
						{
							OFFSET 0.000000 18.199631 0.000000
						}
					}
				}
			}
		}
		JOINT newVegas:Belly
		{
			OFFSET 0.000000 -6.540398 9.014299
			CHANNELS 3 Xrotation Yrotation Zrotation
			End Site
			{
				OFFSET 0.000000 11.566666 0.000000
			}
		}
	}
	JOINT newVegas:ElvisFacialAnim_Joint
	{
		OFFSET 1.000000 -95.330101 -8.825800
		CHANNELS 3 Xrotation Yrotation Zrotation
		End Site
		{
			OFFSET 0.000000 35.315800 0.000000
		}
	}
}
MOTION
Frames: 4
Frame Time: 0.016667
12.963732 57.889381 -37.720669 49.508660 -32.172363 17.019611 -0.000000 0.000000 -0.000000 -78.374672 -5.425198 -0.263729 103.555155 -4.011459 0.541201 21.251333 -7.684891 -11.169110 -0.000000 0.000000 -0.000000 0.000002 0.000000 0.000001 -106.271740 -8.455126 -19.817041 114.256893 -9.978235 6.044719 -33.276159 -10.524578 6.837742 -0.000000 0.000000 0.000001 0.000000 0.000000 -0.000000 30.636814 10.822030 2.503606 6.860042 2.066868 1.129950 6.835851 2.135326 1.146306 -3.189859 -1.671020 0.619272 -3.189863 -1.671023 0.619263 -0.000000 -0.000000 0.000000 -3.189816 -1.671036 0.619273 -3.189835 -1.671025 0.619264 0.000001 -0.000001 -0.000001 -0.000000 -0.000000 0.000000 5.673067 -23.734084 -9.066825 -27.862333 -10.438774 -41.186461 -0.000002 -38.893457 -0.000002 -42.320269 -3.346984 4.206360 -1.538532 3.693643 6.118924 3.939049 7.948703 0.746797 0.000003 0.000001 -0.000003 0.298621 2.009588 -16.903110 0.539676 2.676804 -22.793528 -0.000000 0.000001 0.000000 0.298061 2.007733 -16.887096 0.540428 2.678572 -22.809553 0.000001 -0.000000 0.000001 0.298622 2.009584 -16.903101 0.539686 2.676794 -22.793537 -0.000000 0.000001 0.000000 1.465419 5.893260 -16.473129 0.545011 -1.382184 -23.265243 0.000001 -0.000002 -0.000002 0.000001 0.000000 0.000000 0.000001 0.000000 0.000000 0.000000 0.000000 0.000000 -0.000001 -0.000002 -0.000001 -0.000001 -0.000003 -0.000000 -0.000001 -0.000002 -0.000001 -0.000001 -0.000003 -0.000001 -0.454830 29.350989 14.140368 -42.011923 48.862726 12.344911 -0.000003 14.620228 -0.000018 -4.045426 -7.800931 -22.899213 -1.848190 -3.584407 -6.569215 4.637190 -8.634133 -0.225412 0.000001 -0.000001 0.000001 0.480692 -2.544875 21.389443 1.003308 -3.603114 31.111279 -0.000001 -0.000000 0.000000 0.480700 -2.544863 21.389420 1.003309 -3.603106 31.111293 -0.000000 0.000000 0.000000 0.480696 -2.544863 21.389427 1.003315 -3.603105 31.111303 -0.000000 0.000002 -0.000001 0.480691 -2.544878 21.389436 1.003313 -3.603103 31.111300 -0.000001 0.000003 -0.000000 0.000001 -0.000002 0.000001 0.000001 -0.000002 0.000002 0.000001 -0.000002 0.000001 -0.000001 0.000001 0.000001 -0.000000 0.000000 0.000000 -0.000001 0.000001 0.000001 -0.000000 -0.000000 0.000000 -0.000000 0.000000 0.000002 -0.000000 0.000000 0.000002 -0.000000 0.000000 0.000002 -0.000000 0.000000 0.000002 -0.000000 0.000000 0.000002 -0.000000 0.000000 0.000002 -0.000000 0.000000 0.000002 -0.000000 0.000000 0.000002 -0.000000 0.000000 -0.000000 
12.998587 58.092026 -37.477413 49.091141 -32.723416 17.046433 -0.000001 0.000002 -0.000002 -80.107717 -6.026944 0.295482 104.491977 -3.816121 0.152370 22.678666 -7.280077 -10.738715 -0.000001 0.000000 -0.000001 0.000001 0.000000 -0.000000 -105.249711 -8.272140 -19.680485 113.811360 -9.701409 6.056991 -33.246475 -10.540672 7.163956 0.000000 0.000000 0.000001 0.000001 -0.000001 -0.000001 30.680930 10.774989 2.205399 6.860458 2.055447 1.057262 6.836466 2.123751 1.073446 -3.110320 -1.598680 0.533141 -3.110380 -1.598676 0.533123 0.000000 -0.000000 -0.000001 -3.110246 -1.598702 0.533142 -3.110392 -1.598582 0.533101 0.000002 0.000000 -0.000003 0.000000 -0.000000 0.000000 5.677190 -23.780712 -9.018293 -27.386357 -9.567774 -41.312348 -0.000010 -39.455199 -0.000009 -42.046955 -3.027419 4.146423 -1.537382 3.696283 6.101094 3.939061 7.948701 0.746790 -0.000004 0.000000 -0.000004 0.298630 2.009590 -16.903110 0.539671 2.676807 -22.793516 -0.000002 -0.000002 0.000001 0.298077 2.007742 -16.887084 0.540431 2.678568 -22.809574 0.000002 0.000001 0.000002 0.298640 2.009587 -16.903089 0.539679 2.676795 -22.793548 -0.000001 -0.000000 -0.000001 1.465424 5.893266 -16.473129 0.545010 -1.382199 -23.265308 -0.000001 0.000000 -0.000001 0.000000 0.000001 0.000000 0.000000 0.000001 0.000000 -0.000001 0.000001 0.000000 -0.000001 -0.000001 0.000001 -0.000001 -0.000002 0.000001 -0.000001 -0.000001 0.000001 -0.000001 -0.000001 0.000001 -0.367073 28.852358 13.849373 -40.871592 48.371506 12.524538 0.000001 16.563846 0.000008 -4.109974 -7.929981 -21.633350 -1.847385 -3.586395 -6.556340 4.637187 -8.634128 -0.225392 0.000002 -0.000001 0.000003 0.480691 -2.544874 21.389400 1.003311 -3.603106 31.111324 -0.000001 -0.000000 -0.000002 0.480694 -2.544867 21.389414 1.003309 -3.603100 31.111324 -0.000002 -0.000000 0.000000 0.480694 -2.544866 21.389407 1.003313 -3.603102 31.111341 -0.000000 0.000001 -0.000000 0.480689 -2.544881 21.389410 1.003308 -3.603101 31.111331 -0.000001 -0.000004 -0.000001 -0.000003 -0.000002 0.000001 -0.000003 0.000000 0.000002 -0.000003 -0.000002 0.000001 0.000001 0.000002 0.000001 0.000001 0.000002 0.000001 0.000001 0.000002 0.000001 0.000001 0.000001 0.000001 0.000000 0.000000 0.000001 0.000000 0.000000 0.000001 0.000000 0.000000 0.000001 0.000000 0.000000 0.000001 0.000000 0.000000 0.000001 0.000000 0.000000 0.000001 0.000000 0.000000 0.000001 0.000001 -0.000000 -0.000001 -0.000001 0.000002 -0.000002 
13.033815 58.289818 -37.168030 48.624356 -33.276760 17.076880 0.000001 -0.000003 0.000002 -81.728090 -6.665580 0.655423 105.308806 -3.985937 0.044300 24.028469 -6.635244 -11.012571 0.000000 0.000003 -0.000001 -0.000001 -0.000001 -0.000001 -104.117088 -7.999327 -19.600819 113.390648 -9.370283 6.069950 -33.292552 -10.559623 7.557322 0.000000 0.000002 0.000000 0.000003 -0.000001 -0.000002 30.789659 10.752016 1.863041 6.900521 2.048715 0.955042 6.876935 2.117279 0.970890 -3.034438 -1.518666 0.434628 -3.034444 -1.518664 0.434617 0.000000 -0.000001 0.000000 -3.034436 -1.518652 0.434625 -3.034417 -1.518676 0.434627 -0.000001 0.000001 -0.000002 0.000000 -0.000001 -0.000000 5.697507 -23.899185 -8.949573 -27.065939 -8.692573 -41.259848 -0.000006 -40.071593 -0.000012 -41.576485 -2.697405 3.764257 -1.540044 3.690186 6.142362 3.939056 7.948709 0.746805 -0.000001 0.000001 -0.000001 0.298623 2.009581 -16.903101 0.539686 2.676803 -22.793557 0.000002 -0.000001 0.000001 0.298074 2.007735 -16.887095 0.540426 2.678579 -22.809567 0.000002 -0.000002 0.000003 0.298621 2.009574 -16.903106 0.539696 2.676806 -22.793555 -0.000001 -0.000002 0.000001 1.465422 5.893265 -16.473124 0.545013 -1.382189 -23.265298 0.000002 -0.000005 -0.000003 -0.000001 -0.000000 0.000000 -0.000001 -0.000000 0.000000 -0.000002 -0.000000 -0.000000 -0.000000 -0.000005 -0.000001 -0.000000 -0.000006 0.000001 -0.000000 -0.000005 -0.000001 -0.000000 -0.000005 -0.000001 -0.244509 28.311472 13.397238 -39.815898 48.075250 12.700974 -0.000001 18.268898 0.000008 -4.377008 -7.996919 -20.176855 -1.846494 -3.588588 -6.542186 4.637188 -8.634126 -0.225386 0.000000 0.000000 -0.000000 0.480690 -2.544875 21.389417 1.003311 -3.603114 31.111303 -0.000001 0.000000 -0.000002 0.480691 -2.544868 21.389412 1.003311 -3.603108 31.111286 0.000001 0.000001 0.000000 0.480694 -2.544864 21.389420 1.003313 -3.603116 31.111290 0.000000 -0.000001 -0.000000 0.480690 -2.544880 21.389415 1.003308 -3.603113 31.111286 -0.000001 -0.000000 -0.000001 -0.000000 -0.000001 0.000002 -0.000002 -0.000001 0.000000 -0.000000 -0.000001 0.000003 0.000001 -0.000001 -0.000001 0.000002 0.000000 -0.000001 0.000001 -0.000001 -0.000001 0.000002 -0.000000 -0.000001 0.000000 0.000000 0.000001 0.000000 0.000000 0.000001 0.000000 0.000000 0.000001 0.000000 0.000000 0.000001 0.000000 0.000000 0.000001 0.000000 0.000000 0.000001 0.000000 0.000000 0.000001 -0.000001 -0.000000 -0.000001 0.000001 -0.000003 0.000002 
13.055468 58.525909 -36.794563 48.069642 -33.845732 17.131390 0.000003 -0.000000 -0.000000 -83.131605 -7.334441 0.859331 105.953945 -4.270324 0.101864 25.146682 -6.316973 -11.737745 0.000000 0.000000 -0.000002 -0.000000 0.000001 -0.000003 -102.829017 -7.672071 -19.491806 112.937636 -9.037038 6.051401 -33.426399 -10.629105 7.945748 0.000000 -0.000001 0.000000 -0.000003 -0.000001 -0.000001 30.996399 10.732814 1.440935 6.923768 2.044796 0.861490 6.900689 2.113032 0.877177 -2.952230 -1.429560 0.319618 -2.952234 -1.429567 0.319620 -0.000000 0.000001 -0.000003 -2.952200 -1.429542 0.319609 -2.952185 -1.429591 0.319632 0.000002 0.000001 -0.000002 -0.000000 0.000001 -0.000003 5.758447 -24.143192 -8.911095 -26.806435 -7.789651 -40.855565 -0.000003 -40.789726 -0.000002 -40.997452 -2.407540 3.305832 -1.540044 3.690187 6.142355 3.939048 7.948702 0.746795 -0.000001 0.000001 -0.000003 0.298632 2.009597 -16.903077 0.539668 2.676788 -22.793560 -0.000000 -0.000002 0.000003 0.298070 2.007745 -16.887067 0.540417 2.678568 -22.809562 0.000002 0.000000 0.000003 0.298631 2.009585 -16.903096 0.539670 2.676793 -22.793547 0.000000 -0.000002 0.000001 1.465419 5.893279 -16.473107 0.545010 -1.382189 -23.265296 -0.000002 -0.000005 -0.000004 -0.000002 0.000000 0.000000 -0.000002 0.000000 0.000000 -0.000003 0.000000 0.000000 -0.000000 0.000001 0.000001 -0.000000 0.000000 0.000002 -0.000000 0.000001 0.000001 -0.000000 -0.000000 0.000001 -0.090568 27.840273 12.771130 -38.951606 47.768745 12.863072 -0.000001 19.980762 -0.000000 -4.789537 -8.173852 -18.486421 -1.849249 -3.581792 -6.586106 4.637190 -8.634129 -0.225398 -0.000001 0.000000 -0.000002 0.480688 -2.544870 21.389424 1.003308 -3.603114 31.111310 -0.000002 0.000000 -0.000000 0.480690 -2.544862 21.389412 1.003306 -3.603110 31.111314 -0.000001 -0.000000 0.000001 0.480690 -2.544855 21.389427 1.003305 -3.603119 31.111293 0.000002 0.000001 0.000000 0.480690 -2.544877 21.389431 1.003309 -3.603107 31.111310 -0.000001 -0.000000 -0.000002 -0.000001 0.000001 -0.000001 -0.000003 -0.000003 0.000001 -0.000001 0.000001 -0.000001 -0.000001 0.000001 -0.000002 -0.000000 0.000001 -0.000000 -0.000001 0.000001 -0.000002 -0.000000 0.000001 -0.000000 -0.000000 0.000000 0.000002 -0.000000 0.000000 0.000002 -0.000000 0.000000 0.000002 -0.000000 0.000000 0.000002 -0.000000 0.000000 0.000002 -0.000000 0.000000 0.000002 -0.000000 0.000000 0.000002 0.000001 0.000000 0.000001 0.000003 -0.000000 -0.000000 
